<svg width="50" height="50" viewBox="0 0 50 50" fill="none" xmlns="http://www.w3.org/2000/svg">
<path d="M6.25 22.9167L43.75 22.9167" stroke="#054D96" stroke-width="3" stroke-linecap="round" stroke-linejoin="round"/>
<path d="M6.25 29.1667L6.25 16.6667C6.25 10.7741 6.25 7.82785 8.18826 5.99727C10.1265 4.16669 13.2461 4.16669 19.4853 4.16669L30.5147 4.16669C36.7539 4.16669 39.8735 4.16669 41.8117 5.99727C43.75 7.82785 43.75 10.7741 43.75 16.6667L43.75 29.1667C43.75 35.0592 43.75 38.0055 41.8117 39.8361C39.8735 41.6667 36.7539 41.6667 30.5147 41.6667L19.4853 41.6667C13.2461 41.6667 10.1265 41.6667 8.18826 39.8361C6.25 38.0055 6.25 35.0592 6.25 29.1667Z" stroke="#054D96" stroke-width="3" stroke-linecap="round" stroke-linejoin="round"/>
<path d="M23.9577 22.9167L19.791 12.5" stroke="#054D96" stroke-width="3" stroke-linecap="round" stroke-linejoin="round"/>
<path d="M37.4993 22.9167L35.416 12.5" stroke="#054D96" stroke-width="3" stroke-linecap="round" stroke-linejoin="round"/>
<path d="M14.584 22.9167L14.584 12.5" stroke="#054D96" stroke-width="3" stroke-linecap="round" stroke-linejoin="round"/>
<path d="M29.166 22.9167V12.5" stroke="#054D96" stroke-width="3" stroke-linecap="round" stroke-linejoin="round"/>
<path d="M22.9173 33.3333L27.084 33.3333" stroke="#054D96" stroke-width="3" stroke-linecap="round" stroke-linejoin="round"/>
<path d="M10.416 41.6667L10.416 45.8334M39.5827 41.6667V45.8334" stroke="#054D96" stroke-width="3" stroke-linecap="round" stroke-linejoin="round"/>
</svg>
