<svg width="66" height="66" viewBox="0 0 66 66" fill="none" xmlns="http://www.w3.org/2000/svg">
<circle cx="33" cy="33" r="33" fill="#EDCCFA"/>
<path d="M38.3423 15.7856L38.5131 15.8008C38.7271 15.8198 38.9142 15.9596 38.9863 16.1635L38.9865 16.164C39.0583 16.369 38.9987 16.5946 38.8372 16.7395L38.8362 16.7404L34.3202 20.7407L40.4805 26.3149C40.6058 26.4042 40.6891 26.542 40.7058 26.6965L40.7058 26.6971C40.7226 26.8562 40.6671 27.0143 40.554 27.129C40.4421 27.2429 40.2861 27.3025 40.1269 27.2947L40.1269 27.2947C39.9736 27.2872 39.8294 27.2174 39.7298 27.1013L33.1328 21.1274C33.1326 21.1272 33.1324 21.127 33.1322 21.1269C33.0187 21.0252 32.9519 20.8805 32.9519 20.7268C32.9519 20.5724 33.019 20.4278 33.1328 20.3261L33.1335 20.3255L37.0307 16.8785H22.9157V30.5057L26.0682 27.1532C26.1677 27.0442 26.3071 26.9804 26.4534 26.9731L26.454 26.9731C26.6008 26.9662 26.746 27.0165 26.856 27.1153L26.8591 27.118L26.8591 27.1181L39.7091 39.1508L44.2819 35.0977L44.6146 34.8028V34.9652C44.7004 34.9604 44.7876 34.975 44.869 35.01L44.8691 35.0101C45.0634 35.0937 45.1953 35.281 45.2 35.4947L45.2 35.4991H45.2V50.6604V50.6607H45.0363L45.2 50.662C45.1976 50.9642 44.9469 51.1978 44.6504 51.2L44.6489 51.2L28.5572 51.2H28.5563V51C28.414 51.0017 28.2842 50.9206 28.2276 50.7943L38.3423 15.7856ZM38.3423 15.7856L38.3386 15.8006M38.3423 15.7856L38.3386 15.8006M38.3386 15.8006H22.3671C22.2212 15.7972 22.0788 15.8503 21.9719 15.9501L22.1084 16.0963C22.0398 16.16 22.0006 16.2479 22.0001 16.3399L38.3386 15.8006Z" fill="black" stroke="black" stroke-width="0.4"/>
</svg>
