<svg width="66" height="66" viewBox="0 0 66 66" fill="none" xmlns="http://www.w3.org/2000/svg">
<circle cx="33" cy="33" r="33" fill="#FFEFC7"/>
<path d="M36.0163 18.6315C35.9944 18.6247 35.9487 18.6106 35.8952 18.598C35.4419 18.469 34.974 18.3682 34.4947 18.3025C34.1185 18.2497 33.7395 18.2167 33.3516 18.2035L33.338 18.203H33.3244C33.2658 18.203 33.2319 18.2028 33.2044 18.2013L33.1818 18.2H33.1592H33.1589H33.1586H33.1583H33.158H33.1577H33.1574H33.1571H33.1568H33.1565H33.1562H33.1559H33.1556H33.1553H33.155H33.1547H33.1544H33.1541H33.1538H33.1535H33.1532H33.1529H33.1526H33.1523H33.152H33.1517H33.1514H33.1511H33.1508H33.1505H33.1502H33.1499H33.1496H33.1493H33.149H33.1487H33.1484H33.1481H33.1478H33.1475H33.1472H33.1469H33.1466H33.1463H33.146H33.1457H33.1454H33.1451H33.1448H33.1445H33.1442H33.1439H33.1436H33.1433H33.143H33.1427H33.1424H33.1421H33.1417H33.1414H33.1411H33.1408H33.1405H33.1402H33.1399H33.1396H33.1393H33.139H33.1387H33.1384H33.1381H33.1378H33.1375H33.1372H33.1369H33.1366H33.1363H33.136H33.1357H33.1354H33.1351H33.1348H33.1345H33.1342H33.1339H33.1336H33.1333H33.1329H33.1326H33.1323H33.132H33.1317H33.1314H33.1311H33.1308H33.1305H33.1302H33.1299H33.1296H33.1293H33.129H33.1287H33.1284H33.1281H33.1278H33.1275H33.1272H33.1269H33.1266H33.1262H33.1259H33.1256H33.1253H33.125H33.1247H33.1244H33.1241H33.1238H33.1235H33.1232H33.1229H33.1226H33.1223H33.122H33.1217H33.1214H33.1211H33.1207H33.1204H33.1201H33.1198H33.1195H33.1192H33.1189H33.1186H33.1183H33.118H33.1177H33.1174H33.1171H33.1168H33.1165H33.1162H33.1158H33.1155H33.1152H33.1149H33.1146H33.1143H33.114H33.1137H33.1134H33.1131H33.1128H33.1125H33.1122H33.1119H33.1116H33.1113H33.1109H33.1106H33.1103H33.11H33.1097H33.1094H33.1091H33.1088H33.1085H33.1082H33.1079H33.1076H33.1073H33.107H33.1066H33.1063H33.106H33.1057H33.1054H33.1051H33.1048H33.1045H33.1042H33.1039H33.1036H33.1033H33.103H33.1027H33.1023H33.102H33.1017H33.1014H33.1011H33.1008H33.1005H33.1002H33.0999H33.0996H33.0993H33.099H33.0987H33.0983H33.098H33.0977H33.0974H33.0971H33.0968H33.0965H33.0962H33.0959H33.0956H33.0953H33.095H33.0947H33.0943H33.094H33.0937H33.0934H33.0931H33.0928H33.0925H33.0922H33.0919H33.0916H33.0913H33.091H33.0907H33.0903H33.09H33.0897H33.0894H33.0891H33.0888H33.0885H33.0882H33.0879H33.0876H33.0873H33.087H33.0867H33.0863H33.086H33.0857H33.0854H33.0851H33.0848H33.0845H33.0842H33.0839H33.0836H33.0833H33.083H33.0826H33.0823H33.082H33.0817H33.0814H33.0811H33.0808H33.0805H33.0802H33.0799H33.0796H33.0793H33.079H33.0786H33.0783H33.078H33.0777H33.0774H33.0771H33.0768H33.0765H33.0762H33.0759H33.0756H33.0753H33.0749H33.0746H33.0743H33.074H33.0737H33.0734H33.0731H33.0728H33.0725H33.0722H33.0719H33.0716H33.0713H33.0709H33.0706H33.0703H33.07H33.0697H33.0694H33.0691H33.0688H33.0685H33.0682H33.0679H33.0676H33.0672H33.0669H33.0666H33.0663H33.066H33.0657H33.0654H33.0651H33.0648H33.0645H33.0642H33.0639H33.0636H33.0632H33.0629H33.0626H33.0623H33.062H33.0617H33.0614H33.0611H33.0608H33.0605H33.0602H33.0599H33.0596H33.0593H33.0589H33.0586H33.0583H33.058H33.0577H33.0574H33.0571H33.0568H33.0565H33.0562H33.0559H33.0556H33.0553H33.055H33.0546H33.0543H33.054H33.0537H33.0534H33.0531H33.0528H33.0525H33.0522H33.0519H33.0516H33.0513H33.051H33.0507H33.0503H33.05H33.0497H33.0494H33.0491H33.0488H33.0485H33.0482H33.0479H33.0476H33.0473H33.047H33.0467H33.0464H33.0461H33.0458H33.0454H33.0451H33.0448H33.0445H33.0442H33.0439H33.0436H33.0433H33.043H33.0427H33.0424H33.0421H33.0418H33.0415H33.0412H33.0409H33.0405H33.0402H33.0399H33.0396H33.0393H33.039H33.0387H33.0384H33.0381H33.0378H33.0375H33.0372H33.0369H33.0366H33.0363H33.036H33.0357H33.0354H33.0351H33.0347H33.0344H33.0341H33.0338H33.0335H33.0332H33.0329H33.0326H33.0323H33.032H33.0317H33.0314H33.0311H33.0308H33.0305H33.0302H33.0299H33.0296H33.0293H33.029H33.0287H33.0284H33.028H33.0277H33.0274H33.0271H33.0268H33.0265H33.0262H33.0259H33.0256H33.0253H33.025H33.0247H33.0244H33.0241H33.0238H33.0235H33.0232H33.0229H33.0226H33.0223H33.022H33.0217H33.0214H33.0211H33.0208H33.0205H33.0202H33.0199H33.0196H33.0193H33.019H33.0186H33.0183H33.018H33.0177H33.0174H33.0171H33.0168H33.0165H33.0162H33.0159H33.0156H33.0153H33.015H33.0147H33.0144H33.0141H33.0138H33.0135H33.0132H33.0129H33.0126H33.0123H33.012H33.0117H33.0114H33.0111H33.0108H33.0105H33.0102H33.0099H33.0096H33.0093H33.009H33.0087H33.0084H33.0081H33.0078H33.0075H33.0072H33.0069H33.0066H33.0063H33.006H33.0057H33.0054H33.0051H33.0048H33.0045H33.0042H33.0039H33.0036H33.0033H33.003C32.0447 18.2 31.1155 18.3292 30.2322 18.5675L30.2319 18.5676C27.4362 19.3232 25.0873 21.1928 23.6668 23.6701L23.6664 23.6707C23.5796 23.8224 23.4901 23.9841 23.405 24.1571C23.1145 24.7272 22.8727 25.326 22.6826 25.9468L22.682 25.9489C22.6271 26.1299 22.5792 26.3091 22.5351 26.4739L22.5336 26.4795L22.5335 26.4795L22.5304 26.4918C22.3423 27.2421 22.2323 28.0183 22.2064 28.8194L22.2064 28.8194L22.2063 28.8245C22.2033 28.9396 22.2 29.0691 22.2 29.1973V43.1674C22.2 45.1595 23.7873 46.8 25.7786 46.8H40.2214C42.2127 46.8 43.8 45.1595 43.8 43.1674V29.1973V29.1891C43.8 29.0799 43.8 28.946 43.7933 28.8115C43.651 24.641 41.2176 21.045 37.7248 19.3086L37.9145 19.212L36.0216 18.6331C36.02 18.6326 36.0183 18.6321 36.0163 18.6315Z" stroke="black" stroke-width="1.6"/>
</svg>
