<svg width="66" height="66" viewBox="0 0 66 66" fill="none" xmlns="http://www.w3.org/2000/svg">
<circle cx="33" cy="33" r="33" fill="#C0FEFF"/>
<path d="M49.1 34.1125C49.1 33.053 48.5464 32.1263 47.7269 31.6276C48.1681 31.1024 48.4047 30.4332 48.4047 29.736C48.4047 28.1522 47.1691 26.8624 45.636 26.8624L40.7614 26.8627C41.7696 23.687 41.5064 20.5274 41.2445 18.8467L41.2444 18.8461C41.0631 17.7245 40.1397 16.9 39.0366 16.9C38.4421 16.9 37.8799 17.1392 37.4533 17.5742L37.4527 17.5749C37.0424 18.0013 36.8148 18.5575 36.7974 19.1984C36.5158 20.8943 35.9337 22.2284 35.4192 23.1413C35.1616 23.5984 34.9212 23.9497 34.7441 24.1877C34.6556 24.3067 34.5829 24.3973 34.532 24.4587C34.5065 24.4894 34.4864 24.5127 34.4725 24.5286C34.4603 24.5425 34.4535 24.55 34.4519 24.5517C34.4516 24.5521 34.4515 24.5522 34.4516 24.5521L34.4515 24.5521L34.4493 24.5545L31.2024 28.1594C30.9199 27.8288 30.5079 27.6171 30.0411 27.6171H25.1046C24.2446 27.6171 23.5457 28.3491 23.5457 29.2334V29.9426L17.5669 29.9429C17.198 29.9429 16.9 30.2587 16.9 30.6322C16.9 31.0057 17.1984 31.3214 17.5669 31.3214H23.5526V42.3881H17.5669C17.198 42.3881 16.9 42.7038 16.9 43.0773C16.9 43.4512 17.1984 43.7665 17.5669 43.7665H23.5526V44.4837C23.5526 45.3679 24.2516 46.1 25.1116 46.1H30.048C30.7239 46.1 31.2916 45.6524 31.5063 45.0365C32.0414 45.4718 32.7144 45.7462 33.4496 45.7462H44.9171C45.6558 45.7462 46.3543 45.4437 46.879 44.8984C47.404 44.3527 47.6855 43.628 47.6855 42.8649C47.6855 42.146 47.4292 41.4916 47.0145 40.9897C47.2245 40.8633 47.4232 40.7109 47.6047 40.5219C48.1297 39.9762 48.4111 39.2516 48.4111 38.4885C48.4111 37.77 48.1551 37.1081 47.7268 36.6049C47.9298 36.4816 48.1194 36.3266 48.2909 36.1553L48.291 36.1553L48.2933 36.1528C48.7907 35.621 49.0698 34.9498 49.0973 34.2302L49.1 34.2306V34.1125ZM30.2735 44.4685C30.2735 44.6093 30.169 44.7086 30.0568 44.7134H30.0484H25.112C24.9895 44.7134 24.887 44.6124 24.887 44.4755V29.2252C24.887 29.0883 24.9895 28.9874 25.112 28.9874H30.0484C30.1709 28.9874 30.2735 29.0883 30.2735 29.2252V29.4766V29.4846V42.4254V42.4334V44.4685ZM47.3483 35.1664L47.3483 35.1664C47.0799 35.4453 46.7203 35.5995 46.3317 35.5995H45.6363C45.2673 35.5995 44.9694 35.9153 44.9694 36.2887C44.9694 36.6626 45.2678 36.978 45.6363 36.978C46.4242 36.978 47.0708 37.6446 47.0708 38.4728C47.0708 38.8716 46.9219 39.2477 46.6521 39.5354C46.3838 39.8141 46.0244 39.968 45.636 39.968H44.9103C44.5414 39.968 44.2434 40.2838 44.2434 40.6573C44.2434 41.0312 44.5418 41.3465 44.9103 41.3465C45.6982 41.3465 46.3448 42.0132 46.3448 42.8414C46.3448 43.2401 46.1959 43.6162 45.9262 43.9039C45.6571 44.1833 45.2898 44.3442 44.91 44.3442L33.4505 44.3445C32.4362 44.3445 31.6076 43.4896 31.6001 42.4251C31.6001 42.425 31.6001 42.4248 31.6001 42.4247L31.5998 29.735L35.4209 25.4982C35.5271 25.3869 37.4996 23.2193 38.1295 19.3759C38.1353 19.3486 38.1371 19.3113 38.1379 19.2854C38.1389 19.2543 38.1389 19.2234 38.1389 19.2077V19.2074C38.1389 18.9586 38.2346 18.724 38.4058 18.5461C38.5766 18.3686 38.8004 18.2704 39.0444 18.2704C39.4831 18.2704 39.8603 18.6004 39.9358 19.0664C40.2068 20.7803 40.4683 24.1289 39.201 27.2859C39.113 27.4973 39.139 27.7439 39.2629 27.9284C39.3869 28.1211 39.5921 28.2329 39.8153 28.2329H45.6514C46.4393 28.2329 47.0859 28.8995 47.0859 29.7277C47.0859 30.1265 46.937 30.5026 46.6673 30.7903C46.3989 31.069 46.0394 31.2229 45.651 31.2229C45.2821 31.2229 44.9841 31.5387 44.9841 31.9122C44.9841 32.2861 45.2825 32.6014 45.651 32.6014H46.3464C47.1338 32.6014 47.7801 33.2672 47.7809 34.0947C47.767 34.512 47.6166 34.8879 47.3483 35.1664Z" fill="black" stroke="black" stroke-width="0.2"/>
</svg>
